<?xml version="1.0" encoding="utf-8"?>
<!-- Generator: Adobe Illustrator 22.1.0, SVG Export Plug-In . SVG Version: 6.00 Build 0)  -->
<svg version="1.1" id="Layer_1" xmlns="http://www.w3.org/2000/svg" xmlns:xlink="http://www.w3.org/1999/xlink" x="0px" y="0px"
	 viewBox="0 0 35 20.1" style="enable-background:new 0 0 35 20.1;" xml:space="preserve">
<title>init</title>
<g id="Layer_2_1_">
	<g id="Layer_2-2">
		<path d="M31.4,8c0.2-0.5,0.5-1.2,0.6-1.3C32.6,5,30.4,4,30,5.2c-0.2,0.7-0.6,1.7-0.8,2.3c-2.3-0.4-3.9-0.7-4.2,0.1
			C24.6,8.8,25.2,9,26,9s2.5,0.2,2.5,0.2c-2,4.6-4.2,7.4-3.7,5.8c0.9-2.7,2-4.6,0.7-5.1c-0.6-0.1-1.3,0.1-1.8,0.5
			c-1.4,1.3-3.5,5.3-4.8,6.8c-0.8,0.9-0.4-1.1,1.2-4.2s3.1-6.7,2.4-7.8s-1.9-1-3.2,0.5s-6.5,10.8-6.7,9.7c-0.1-0.8,4.2-9.1,4.9-12
			s-4.2-4.9-5.3-1.6c-1.1,3-1.4,6.1-3.4,10.3c-2.2,4.6-4.6,6.3-1.5,0.4c1.6-3.1-0.8-2.1-2.8-1.1c-0.8,0.3-1.7,0.3-2.5,0.1
			c-0.4-0.1-1.5-0.6-1.7-1.2c-0.2-1.1,6.1-0.8,6.8-0.9S8,9.1,8.2,8.1C8.7,5.6-0.6,7.9,0,10c0,0.7,1.4,1.2,1.8,1.4
			c0.8,0.3,1.8,0.3,2.6,0C5.3,11,5.5,11.6,4.7,13s-2.4,3.9-0.9,4.4s3.5-0.6,5.4-5.2c1.4-3.2,2.5-6.6,3.4-10c0.8-2.9,3.7-1.9,2.1,2.2
			c-0.8,2-4.6,10.5-5.8,13.3c-1.1,2.5,1.6,3.3,3.1,1c2.7-4.2,6.8-11.5,7.9-12c0.9-0.4,0,2.8-3.4,9c-1.8,3.2,1.1,4,2.3,2.8
			S21.5,14,23,12c1.6-2.1,1.9-1.4,1.1,0.2c-0.5,1.1-1.4,3-1.3,4.3s2.5,2,4.2-0.5c2-2.9,2.5-4.7,3.6-6.7c4.9,0.4,3.9,1.4,3.9,1.4
			S36.8,9.1,31.4,8z"/>
	</g>
</g>
</svg>
