<svg xmlns="http://www.w3.org/2000/svg" viewBox="0 0 726.6 298.1"><defs><style>.cls-1{fill:#231f20;}</style></defs><title>logo</title><g id="Layer_2" data-name="Layer 2"><g id="Layer_1-2" data-name="Layer 1"><path class="cls-1" d="M634.74,297.94h0A40.49,40.49,0,0,1,596,266.68a39.51,39.51,0,0,1,5.1-30.28A40.12,40.12,0,0,1,626,218.52a43.53,43.53,0,0,1,10.57-1.16A41.33,41.33,0,0,1,657,223.05,39.87,39.87,0,0,1,670.22,279a41.37,41.37,0,0,1-25.46,17.85,40.94,40.94,0,0,1-10,1.1Zm1.65-68a30.64,30.64,0,0,0-7.48.83,27.59,27.59,0,0,0-17.13,12.31,27.07,27.07,0,0,0-3.52,20.69,27.91,27.91,0,0,0,26.67,21.55h0a29.21,29.21,0,0,0,24.69-13.18,27.26,27.26,0,0,0-9-38.25A28.72,28.72,0,0,0,636.39,230Z"/><path class="cls-1" d="M717.88,158.75a181.33,181.33,0,0,0-14.77-11.48c-4.05-3-8.63-6.31-13.47-10.05l-.14-.11-.14-.11a153.56,153.56,0,0,1-20.81-18.13c13-1.67,24.35-7.15,32.51-15.89,7.71-8.24,16.44-23.48,14.32-49.29-1.39-16.87-5.79-30-13.07-39.17A37.59,37.59,0,0,0,672.63,0c-8.44-.12-17.43,2.16-26.75,6.78a75.36,75.36,0,0,0-21.06,15.48,24.5,24.5,0,0,0-12.13-3c-4.87-.07-11,.78-18.65,2.59L589.36,23c-18.84,4.28-32.7,7.94-39.53,16-3.87,4.57-7.63,13-2.23,38,3.64,16.87,10.78,38.18,20.66,61.64,18.19,43.23,27.1,56.35,30.25,60.09,1.92,2.47,6.52,7.64,12.54,9.56a18.11,18.11,0,0,0,5.25.81c7.76.11,18.79-3.86,25.76-7.59a19.66,19.66,0,0,0,10.57-15c6.28,6,15.09,12.52,25.83,12.68.52,0,1,0,1.55,0a113.34,113.34,0,0,0,28.92-5.46c4.42-1.43,15.69-5.15,17.46-16.11C727.93,168,720.63,161.27,717.88,158.75ZM704.94,181.7a99.67,99.67,0,0,1-25.49,4.83c-.27,0-.54,0-.8,0-10.45-.15-20.14-12.17-24.22-16.43-18.32-19.18-34.69-51.64-34.69-51.64s13.57,41.35,16.22,50.12,8,17.6.15,21.8c-6.79,3.63-15.4,6.16-19.63,6.09a5.49,5.49,0,0,1-1.6-.21c-3.18-1-6.58-5.5-6.58-5.5s-7.73-7.87-28.43-57-25.7-80.39-20.42-86.63S585,37,596.93,34.16c6.05-1.42,11.46-2.3,15.58-2.24,4.61.06,7.61,1.31,8.11,4.3A64.56,64.56,0,0,1,621,51.5s6.43-21.48,30.5-33.43c7.14-3.54,14.31-5.56,21-5.46,15.38.22,27.88,11.8,30.38,42.12C705.71,89.87,686,107.2,659,106.81a72.68,72.68,0,0,1-17-2.4s10.14,21,39.94,42.77C708.28,167.6,725.42,175.11,704.94,181.7Z"/><path class="cls-1" d="M24.69,295.49h0a38.08,38.08,0,0,1-24.45-40,37.22,37.22,0,0,1,14.12-25.22,37.76,37.76,0,0,1,27.73-8,40.62,40.62,0,0,1,9.73,2.32,39.09,39.09,0,0,1,16.27,11.49,37.53,37.53,0,0,1-6,53.77,39,39,0,0,1-28.22,7.76,38,38,0,0,1-9.22-2.2Zm23-59.72a29.46,29.46,0,0,0-6.89-1.63,25.93,25.93,0,0,0-19.07,5.49A25.43,25.43,0,0,0,12,256.85a26.26,26.26,0,0,0,16.81,27.54h0a27.43,27.43,0,0,0,26.06-3.87A25.66,25.66,0,0,0,59,243.76a27.15,27.15,0,0,0-11.32-8Z"/><path class="cls-1" d="M208.16,295.63h0a38.08,38.08,0,0,1-25-39.64A37.23,37.23,0,0,1,197,230.59a37.81,37.81,0,0,1,27.63-8.32,40.77,40.77,0,0,1,9.76,2.19,39.12,39.12,0,0,1,16.42,11.29,37.53,37.53,0,0,1-5.27,53.84,38.94,38.94,0,0,1-28.11,8.12,38.09,38.09,0,0,1-9.25-2.08Zm22.2-60a28.71,28.71,0,0,0-6.92-1.54,26,26,0,0,0-19,5.73A25.46,25.46,0,0,0,195,257.16a26.26,26.26,0,0,0,17.16,27.31h0a26.84,26.84,0,0,0,6.41,1.44,27.16,27.16,0,0,0,19.6-5.63,25.67,25.67,0,0,0,3.61-36.82,27.16,27.16,0,0,0-11.42-7.84Z"/><path class="cls-1" d="M239.92,178.51c-.91,9.33.14,17.06-8.1,18.41-7.15,1.16-15.58.78-19.33-.56a5.36,5.36,0,0,1-1.36-.68c-2.52-1.87-4.19-6.9-4.19-6.9s-4.47-9.36-7.9-59.44,1.64-79.4,8.24-83.35,25.81-1.23,37.32-.09a64.23,64.23,0,0,1,14.55,2.75c4.09,1.47,5.6,5.78,4.63,9.61C254.89,93.27,246.47,111.13,239.92,178.51ZM277.78,47.32c-3.51-6.45-11-9-17-10.31s-17.91-3.21-19.49-3.38c-18.08-1.94-31.54-2.91-40.07,2.18-4.84,2.89-10.76,9.27-13.59,33.16-1.9,16.13-2,37.28-.41,61.18,3,44,6.93,58.42,8.6,62.72,1,2.78,3.47,8.79,8.24,12.33a16.57,16.57,0,0,0,4.43,2.31c6.87,2.47,17.91,2.31,25.25,1.11,6.33-1,15.36-1.06,16.23-13.63C257.1,92.23,283.87,58.47,277.78,47.32Z"/><path class="cls-1" d="M402.26,296.09h0A38.12,38.12,0,0,1,376.49,257a37.24,37.24,0,0,1,13.26-25.68,37.76,37.76,0,0,1,27.45-8.88,40.42,40.42,0,0,1,9.8,2,39,39,0,0,1,16.65,10.94,37.53,37.53,0,0,1-4.16,53.94,38.94,38.94,0,0,1-27.94,8.7,38.43,38.43,0,0,1-9.29-1.89Zm21-60.45a28.9,28.9,0,0,0-6.94-1.41,26,26,0,0,0-18.88,6.13,25.43,25.43,0,0,0-9.09,17.54,26.28,26.28,0,0,0,17.73,27h0A27.39,27.39,0,0,0,432,280.12a25.67,25.67,0,0,0,2.85-36.88,27,27,0,0,0-11.58-7.6Z"/><path class="cls-1" d="M469.91,47.85a67.37,67.37,0,0,0-24.32-18,63.17,63.17,0,0,0-27.12-5c-30.42,1-58.68,22.71-67.18,51.57l-.08.28c-2.79,9.47-5.2,17.65-2.8,25.76,3.38,11.46,14.59,16.55,24,19.7,5.56,1.86,13.31,4.74,20.06,5-.53,6-5.39,41.39-5.2,52.61.14,8.76,1.2,15.7,5.87,21.11s11.61,7.15,17.18,8.44a38.49,38.49,0,0,0,10.76,1.25c10.85-.36,16-6.1,18.08-9.48,2.33-3.76,3.74-9.15,5.87-17.29,3.39-13,8-30.74,17.52-45.35s18.16-28.8,21.18-43.58C487.17,77.83,482.66,62.47,469.91,47.85ZM453.1,132.28c-15.82,24.36-19.26,56-23.53,62.85-1.92,3.1-5.53,4.05-8.89,4.16a27.6,27.6,0,0,1-7.64-.91c-11.3-2.62-14.32-4.15-14.57-18.85-.2-12.32,4.34-46.53,5.81-57.28,3.17-17.34,9.7-41.54,22.12-48.47,0,0-23.71,6-32.18,42.73-6-1.46-13.26-3.34-18.26-5-21.32-7.15-18.86-15-13.89-31.91,7.22-24.49,31.53-42.66,56.78-43.51,15-.5,30.33,5.12,42.59,19.17C483.83,80.91,471.83,103.44,453.1,132.28Z"/></g></g></svg>